<?xml version="1.0" standalone="no"?>
<!DOCTYPE svg PUBLIC "-//W3C//DTD SVG 20010904//EN"
 "http://www.w3.org/TR/2001/REC-SVG-20010904/DTD/svg10.dtd">
<svg version="1.0" xmlns="http://www.w3.org/2000/svg"
 width="752.000000pt" height="752.000000pt" viewBox="0 0 752.000000 752.000000"
 preserveAspectRatio="xMidYMid meet">
<metadata>
Created by potrace 1.11, written by Peter Selinger 2001-2013
</metadata>
<g transform="translate(0.000000,752.000000) scale(0.100000,-0.100000)"
fill="#000000" stroke="none">
<path d="M4056 5886 c-36 -15 -133 -112 -144 -145 -6 -18 -6 -36 2 -55 6 -15
233 -250 505 -522 488 -488 495 -494 534 -494 37 0 47 7 109 68 58 58 68 74
68 103 0 19 -6 43 -14 54 -8 11 -233 239 -500 506 -299 299 -496 489 -510 491
-13 3 -36 0 -50 -6z"/>
<path d="M3393 5884 c-13 -6 -954 -945 -984 -983 -11 -13 -19 -39 -19 -59 0
-30 10 -45 68 -104 57 -56 74 -68 101 -68 18 0 40 4 49 9 19 10 978 968 992
991 22 35 11 78 -32 128 -71 81 -123 107 -175 86z"/>
<path d="M1859 4351 c-33 -26 -968 -962 -979 -981 -5 -8 -10 -30 -10 -49 0
-29 10 -45 70 -104 117 -115 65 -150 646 432 270 271 495 502 500 514 18 44 5
73 -66 141 -57 55 -74 66 -103 66 -19 0 -45 -9 -58 -19z"/>
<path d="M2465 4309 c-72 -69 -88 -101 -71 -143 6 -15 233 -250 505 -522 472
-471 497 -494 531 -494 67 0 180 113 180 179 0 37 -16 54 -501 540 -493 493
-502 501 -541 501 -35 0 -47 -7 -103 -61z"/>
<path d="M4412 3870 c-309 -310 -502 -510 -504 -525 -8 -37 15 -76 80 -137 52
-50 66 -58 99 -58 38 0 51 12 532 493 270 270 496 499 501 507 5 8 10 30 10
49 0 29 -10 45 -68 103 -62 62 -72 68 -109 68 -40 0 -45 -5 -541 -500z"/>
<path d="M5540 4343 c-88 -74 -121 -123 -112 -168 2 -15 194 -215 505 -525
494 -494 500 -500 540 -500 37 0 47 7 109 68 58 58 68 74 68 103 0 19 -5 41
-10 49 -5 8 -231 237 -501 508 -475 475 -494 492 -530 492 -26 0 -47 -8 -69
-27z"/>
<path d="M3394 2844 c-48 -34 -988 -982 -999 -1008 -19 -43 -3 -75 70 -145 55
-53 68 -61 102 -61 38 0 50 11 532 493 270 270 496 499 501 507 5 8 10 31 10
50 0 30 -9 45 -63 99 -70 68 -118 89 -153 65z"/>
<path d="M4057 2846 c-36 -15 -127 -104 -142 -139 -6 -16 -10 -39 -7 -53 2
-14 193 -213 505 -524 445 -445 504 -500 531 -500 45 0 76 11 76 25 0 8 8 16
18 20 9 3 34 26 55 51 38 46 48 91 27 124 -24 39 -986 990 -1009 998 -18 6
-36 6 -54 -2z"/>
</g>
</svg>
