<svg xmlns="http://www.w3.org/2000/svg" viewBox="-5.39997 -6.6356 46.79974 39.8136"><path d="M35.831 15.5662l-5.9424-5.9425c-.225-.2238-.5888-.2238-.8125 0l-.5375.5387a.5719.5719 0 000 .8113l5.9412 5.9437c.225.2238.5888.2238.8125 0l.5388-.5387c.225-.225.225-.5888 0-.8125m-15.3994 3.515a.5756.5756 0 00-.8125 0l-.5375.5375c-.225.225-.225.5887-.001.8125l5.9437 5.9425a.5719.5719 0 00.8113 0l.5387-.5388a.5719.5719 0 000-.8112l-5.9425-5.9425zm0-18.9134a.5756.5756 0 00-.8125 0l-.5375.5375c-.225.225-.225.5888-.001.8125l5.9437 5.9425a.5719.5719 0 00.8113 0l.5387-.5387a.5719.5719 0 000-.8113L20.432.1678zM10.975 9.6246a.5756.5756 0 00-.8125 0l-.5375.5375c-.225.225-.225.5887-.001.8125l5.9437 5.9425a.5719.5719 0 00.8113 0l.5387-.5388a.5719.5719 0 000-.8112l-5.9425-5.9425zm5.4043 9.4563c-.2237-.2237-.5875-.2237-.8125 0l-5.9425 5.9425a.5741.5741 0 000 .8113l.5388.5387a.5734.5734 0 00.8125 0l5.9412-5.9425c.225-.2237.225-.5875 0-.8125zm3.2403-2.1637c.2237.2237.5875.2237.8125 0l5.9412-5.9425c.225-.225.225-.5888 0-.8125l-.5375-.5375a.5734.5734 0 00-.8125 0l-5.9425 5.9412a.5756.5756 0 000 .8125zM6.9228 9.6242a.5756.5756 0 00-.8125 0L.1678 15.5667a.5741.5741 0 000 .8112l.5375.5388a.575.575 0 00.8138 0l5.9412-5.9425a.5734.5734 0 000-.8125zm3.232-2.1719c.2288.2288.6.2288.8288 0l5.925-5.9275c.2287-.2275.2287-.5987 0-.8275l-.5213-.5225c-.2287-.2275-.6-.2287-.8287 0L9.6323 6.1011a.5862.5862 0 000 .8287z" /></svg>